<mxfile host="app.diagrams.net" agent="Mozilla/5.0 (Windows NT 10.0; Win64; x64) AppleWebKit/537.36 (KHTML, like Gecko) Chrome/131.0.0.0 Safari/537.36" version="26.0.6">
  <diagram name="Page-1" id="ZCWC547f5--9SYTD8tw1">
    <mxGraphModel dx="245" dy="130" grid="1" gridSize="10" guides="1" tooltips="1" connect="1" arrows="1" fold="1" page="1" pageScale="1" pageWidth="827" pageHeight="1169" math="0" shadow="0">
      <root>
        <mxCell id="0" />
        <mxCell id="1" parent="0" />
        <mxCell id="jpxJzAL-oAZgfyO3tzBZ-1" value="Payment" style="shape=umlFrame;whiteSpace=wrap;html=1;pointerEvents=0;" vertex="1" parent="1">
          <mxGeometry x="31.74" y="208.26" width="348.26" height="221.74" as="geometry" />
        </mxCell>
        <mxCell id="jpxJzAL-oAZgfyO3tzBZ-2" value="" style="shape=waypoint;sketch=0;fillStyle=solid;size=6;pointerEvents=1;points=[];fillColor=none;resizable=0;rotatable=0;perimeter=centerPerimeter;snapToPoint=1;" vertex="1" parent="1">
          <mxGeometry x="110" y="208.26" width="20" height="20" as="geometry" />
        </mxCell>
        <mxCell id="jpxJzAL-oAZgfyO3tzBZ-3" value="" style="endArrow=classic;html=1;rounded=0;exitX=0.42;exitY=0.89;exitDx=0;exitDy=0;exitPerimeter=0;entryX=0.5;entryY=0;entryDx=0;entryDy=0;" edge="1" parent="1" source="jpxJzAL-oAZgfyO3tzBZ-2" target="jpxJzAL-oAZgfyO3tzBZ-4">
          <mxGeometry width="50" height="50" relative="1" as="geometry">
            <mxPoint x="140" y="288.26" as="sourcePoint" />
            <mxPoint x="70" y="189.99913043478261" as="targetPoint" />
          </mxGeometry>
        </mxCell>
        <mxCell id="jpxJzAL-oAZgfyO3tzBZ-4" value="Pendding" style="rounded=1;whiteSpace=wrap;html=1;" vertex="1" parent="1">
          <mxGeometry x="80" y="260" width="80" height="20" as="geometry" />
        </mxCell>
        <mxCell id="jpxJzAL-oAZgfyO3tzBZ-5" value="Waiting" style="rounded=1;whiteSpace=wrap;html=1;" vertex="1" parent="1">
          <mxGeometry x="80" y="330" width="80" height="20" as="geometry" />
        </mxCell>
        <mxCell id="jpxJzAL-oAZgfyO3tzBZ-6" value="" style="endArrow=classic;html=1;rounded=0;exitX=0.5;exitY=1;exitDx=0;exitDy=0;entryX=0.5;entryY=0;entryDx=0;entryDy=0;" edge="1" parent="1" source="jpxJzAL-oAZgfyO3tzBZ-4" target="jpxJzAL-oAZgfyO3tzBZ-5">
          <mxGeometry width="50" height="50" relative="1" as="geometry">
            <mxPoint x="190" y="360" as="sourcePoint" />
            <mxPoint x="240" y="310" as="targetPoint" />
          </mxGeometry>
        </mxCell>
        <mxCell id="jpxJzAL-oAZgfyO3tzBZ-7" value="Rejected" style="rounded=1;whiteSpace=wrap;html=1;" vertex="1" parent="1">
          <mxGeometry x="230" y="360" width="80" height="20" as="geometry" />
        </mxCell>
        <mxCell id="jpxJzAL-oAZgfyO3tzBZ-8" value="Accepted" style="rounded=1;whiteSpace=wrap;html=1;" vertex="1" parent="1">
          <mxGeometry x="230" y="300" width="80" height="20" as="geometry" />
        </mxCell>
        <mxCell id="jpxJzAL-oAZgfyO3tzBZ-9" value="" style="endArrow=classic;html=1;rounded=0;exitX=1;exitY=0.25;exitDx=0;exitDy=0;entryX=0;entryY=0.5;entryDx=0;entryDy=0;" edge="1" parent="1" source="jpxJzAL-oAZgfyO3tzBZ-5" target="jpxJzAL-oAZgfyO3tzBZ-8">
          <mxGeometry width="50" height="50" relative="1" as="geometry">
            <mxPoint x="230" y="390" as="sourcePoint" />
            <mxPoint x="280" y="340" as="targetPoint" />
          </mxGeometry>
        </mxCell>
        <mxCell id="jpxJzAL-oAZgfyO3tzBZ-10" value="" style="endArrow=classic;html=1;rounded=0;exitX=1;exitY=0.75;exitDx=0;exitDy=0;entryX=0;entryY=0.75;entryDx=0;entryDy=0;" edge="1" parent="1" source="jpxJzAL-oAZgfyO3tzBZ-5" target="jpxJzAL-oAZgfyO3tzBZ-7">
          <mxGeometry width="50" height="50" relative="1" as="geometry">
            <mxPoint x="170" y="345" as="sourcePoint" />
            <mxPoint x="230" y="300" as="targetPoint" />
          </mxGeometry>
        </mxCell>
        <mxCell id="jpxJzAL-oAZgfyO3tzBZ-12" value="" style="ellipse;whiteSpace=wrap;html=1;aspect=fixed;" vertex="1" parent="1">
          <mxGeometry x="350" y="320" width="21.74" height="21.74" as="geometry" />
        </mxCell>
        <mxCell id="jpxJzAL-oAZgfyO3tzBZ-13" value="" style="shape=waypoint;sketch=0;fillStyle=solid;size=6;pointerEvents=1;points=[];fillColor=none;resizable=0;rotatable=0;perimeter=centerPerimeter;snapToPoint=1;" vertex="1" parent="1">
          <mxGeometry x="350.87" y="320.87" width="20" height="20" as="geometry" />
        </mxCell>
        <mxCell id="jpxJzAL-oAZgfyO3tzBZ-14" value="" style="endArrow=classic;html=1;rounded=0;exitX=1;exitY=0.5;exitDx=0;exitDy=0;entryX=0;entryY=0.5;entryDx=0;entryDy=0;" edge="1" parent="1" source="jpxJzAL-oAZgfyO3tzBZ-8" target="jpxJzAL-oAZgfyO3tzBZ-12">
          <mxGeometry width="50" height="50" relative="1" as="geometry">
            <mxPoint x="340" y="370" as="sourcePoint" />
            <mxPoint x="390" y="320" as="targetPoint" />
          </mxGeometry>
        </mxCell>
        <mxCell id="jpxJzAL-oAZgfyO3tzBZ-15" value="" style="endArrow=classic;html=1;rounded=0;entryX=0;entryY=0.5;entryDx=0;entryDy=0;exitX=0.5;exitY=1;exitDx=0;exitDy=0;" edge="1" parent="1" source="jpxJzAL-oAZgfyO3tzBZ-7" target="jpxJzAL-oAZgfyO3tzBZ-5">
          <mxGeometry width="50" height="50" relative="1" as="geometry">
            <mxPoint x="280" y="460" as="sourcePoint" />
            <mxPoint x="330" y="410" as="targetPoint" />
            <Array as="points">
              <mxPoint x="270" y="410" />
              <mxPoint x="60" y="410" />
              <mxPoint x="60" y="340" />
            </Array>
          </mxGeometry>
        </mxCell>
        <mxCell id="jpxJzAL-oAZgfyO3tzBZ-17" value="Checked" style="text;html=1;align=center;verticalAlign=middle;whiteSpace=wrap;rounded=0;fontFamily=Helvetica;fontSize=12;fontColor=default;rotation=-20;" vertex="1" parent="1">
          <mxGeometry x="160" y="300" width="60" height="30" as="geometry" />
        </mxCell>
        <mxCell id="jpxJzAL-oAZgfyO3tzBZ-21" value="Checked" style="text;html=1;align=center;verticalAlign=middle;whiteSpace=wrap;rounded=0;fontFamily=Helvetica;fontSize=12;fontColor=default;rotation=30;" vertex="1" parent="1">
          <mxGeometry x="170" y="330" width="60" height="30" as="geometry" />
        </mxCell>
      </root>
    </mxGraphModel>
  </diagram>
</mxfile>
